<svg xmlns="http://www.w3.org/2000/svg" width="22" height="22" viewBox="0 0 24 24" fill="none" stroke="currentColor" stroke-width="2.5" stroke-linecap="round" stroke-linejoin="round" class="lucide lucide-house transition-colors duration-200 text-primary" aria-hidden="true" data-replit-metadata="artifacts/tawbah-web/src/components/layout.tsx:45:8" data-component-name="Icon" data-fc-idx="0"><path d="M15 21v-8a1 1 0 0 0-1-1h-4a1 1 0 0 0-1 1v8" style="fill: none !important; stroke: rgb(22, 95, 77) !important; stroke-width: 2.5px !important;"/><path d="M3 10a2 2 0 0 1 .709-1.528l7-6a2 2 0 0 1 2.582 0l7 6A2 2 0 0 1 21 10v9a2 2 0 0 1-2 2H5a2 2 0 0 1-2-2z" style="fill: none !important; stroke: rgb(22, 95, 77) !important; stroke-width: 2.5px !important;"/></svg>